<?xml version="1.0" encoding="UTF-8"?>
<svg width="419px" height="466px" viewBox="0 0 419 466" version="1.1" xmlns="http://www.w3.org/2000/svg" xmlns:xlink="http://www.w3.org/1999/xlink">
    <title>Group 27 Copy 2</title>
    <g id="Page-1" stroke="none" stroke-width="1" fill="none" fill-rule="evenodd">
        <g id="Group-27-Copy-2">
            <path d="M142,82.5 L257.14538,82.5 L257.14538,82.5 L277,82.5 C355.424434,82.5 419,146.075566 419,224.5 L419,240.5 C419,318.924434 355.424434,382.5 277,382.5 L142,382.5 C63.5755655,382.5 9.60422327e-15,318.924434 0,240.5 L0,224.5 C-9.60422327e-15,146.075566 63.5755655,82.5 142,82.5 Z" id="Rectangle" fill="#3DCF97"></path>
            <path d="M195.236583,160.28135 C202.375933,166.069859 207.476603,168.964113 210.538595,168.964113 C213.498853,168.964113 218.347327,166.258985 225.084015,160.848728 C263.192938,130.243325 318.896905,136.326129 349.502309,174.435051 C362.121616,190.148231 369,209.69785 369,229.851036 L369,241.674268 C369,290.551468 329.3772,330.174268 280.5,330.174268 C260.649855,330.174268 241.376046,323.50088 225.7758,311.226493 C218.678297,305.642125 213.599228,302.849941 210.538595,302.849941 C207.375427,302.849941 202.036626,305.832342 194.522194,311.797144 C156.239624,342.185063 100.571195,335.785184 70.1832761,297.502614 C57.7610942,281.853203 51,262.460778 51,242.480421 L51,229.024955 C51.0000005,180.147755 90.6227999,140.524956 139.5,140.524956 C159.79454,140.524956 179.472517,147.500013 195.236583,160.28135 Z" id="Rectangle" fill="#FFFFFF"></path>
            <path d="M124,250.75 L113.834224,256.094465 C111.878845,257.122468 109.460337,256.370682 108.432333,254.415304 C108.022977,253.636662 107.881718,252.744789 108.030426,251.877759 L109.971916,240.558001 L109.971916,240.558001 L101.747631,232.541303 C100.165696,230.999298 100.133327,228.466845 101.675332,226.884911 C102.289366,226.254977 103.093936,225.845028 103.964484,225.71853 L115.330168,224.066999 L115.330168,224.066999 L120.413056,213.767943 C121.390745,211.786928 123.789248,210.973572 125.770263,211.951262 C126.559113,212.340582 127.197623,212.979093 127.586944,213.767943 L132.669832,224.066999 L132.669832,224.066999 L144.035516,225.71853 C146.221695,226.0362 147.736421,228.065972 147.418751,230.252151 C147.292253,231.122699 146.882304,231.927269 146.252369,232.541303 L138.028084,240.558001 L138.028084,240.558001 L139.969574,251.877759 C140.343018,254.055105 138.880667,256.122928 136.703321,256.496372 C135.836291,256.64508 134.944418,256.503821 134.165776,256.094465 L124,250.75 L124,250.75 Z" id="Star" fill="#3DCF97"></path>
            <rect id="Rectangle" fill="#3DCF97" x="188" y="232.5" width="43" height="13" rx="6.5"></rect>
            <g id="Group-30" transform="translate(264.388779, 208.907902)" fill="#3DCF97">
                <path d="M40.6912912,9.22174407 L26.5954499,39.3076058 C25.0785607,42.5452216 26.4734853,46.3995095 29.7111011,47.9163988 C29.7181069,47.9196811 29.7251187,47.922951 29.7321362,47.9262082 C32.9902297,49.4384703 36.8577605,48.0309067 38.3816939,44.7782559 L52.4775352,14.6923942 C53.9944244,11.4547784 52.5994999,7.60049045 49.361884,6.08360123 C49.3548782,6.08031886 49.3478665,6.07704905 49.3408489,6.07379181 C46.0827554,4.56152973 42.2152246,5.9690933 40.6912912,9.22174407 Z" id="Rectangle" transform="translate(39.536493, 27.000000) rotate(10.000000) translate(-39.536493, -27.000000) "></path>
                <path d="M21.6183061,44.7782559 L7.5224648,14.6923942 C6.00557558,11.4547784 7.40050013,7.60049045 10.638116,6.08360123 C10.6451218,6.08031886 10.6521335,6.07704905 10.6591511,6.07379181 C13.9172446,4.56152973 17.7847754,5.9690933 19.3087088,9.22174407 L33.4045501,39.3076058 C34.9214393,42.5452216 33.5265147,46.3995095 30.2888989,47.9163988 C30.2818931,47.9196811 30.2748813,47.922951 30.2678638,47.9262082 C27.0097703,49.4384703 23.1422395,48.0309067 21.6183061,44.7782559 Z" id="Rectangle" transform="translate(20.463507, 27.000000) rotate(-10.000000) translate(-20.463507, -27.000000) "></path>
            </g>
            <polygon id="Path-5" fill="#3DCF97" points="273.14538 83.5 240.100507 46.1110901 240.100507 83.5 192.14538 26.5 192.14538 83.5"></polygon>
        </g>
    </g>
</svg>